<?xml version="1.0" encoding="UTF-8"?>
<svg width="512pt" height="512pt" version="1.0" viewBox="0 0 512 512" xmlns="http://www.w3.org/2000/svg">
 <g transform="matrix(.82253 0 0 .82253 42.626 52.244)" fill="#d1d2d5">
  <path d="m246.88 50.658c-0.69529 0.0632-2.8128 0.28444-4.709 0.44246-17.129 1.675-34.354 7.9958-49.176 18.046-34.417 23.324-52.431 64.125-46.458 105.27 3.6977 25.346 16.023 47.975 35.681 65.578 14.348 12.831 33.406 22.028 52.652 25.346 6.9529 1.2326 10.018 1.4538 18.804 1.4538 8.7859 0 11.852-0.22124 18.804-1.4538 38.494-6.6685 71.109-34.638 83.656-71.71 11.156-32.963 5.9732-68.897-13.969-97.183-17.951-25.41-45.415-41.654-76.64-45.352-2.9076-0.34765-16.371-0.66369-18.646-0.44246z"/>
  <path d="m328.41 258.87c-15.107 11.472-34.29 19.784-53.316 23.071-7.8062 1.359-10.998 1.6118-21.428 1.6118-10.082 0-11.504-0.0948-19.342-1.2958-18.52-2.7812-37.008-10.303-52.716-21.364l-3.6029-2.5599-3.35 0.53727c-1.833 0.31604-5.7203 1.201-8.6911 1.9278-25.504 6.4472-48.291 19.468-67.001 38.241-22.945 23.008-36.977 52.305-40.991 85.457-0.91652 7.5217-1.0113 23.419-0.15802 29.392 1.675 11.946 4.4878 18.615 10.113 23.956 5.4043 5.1515 13.305 7.3954 24.398 6.9529 8.5015-0.34762 16.845-1.7382 38.873-6.5737 25.821-5.6571 37.767-7.7114 53.411-9.1968 6.4788-0.6005 143.01-0.6005 149.49 0 15.644 1.4854 27.59 3.5396 53.411 9.1968 22.028 4.8354 30.372 6.226 38.873 6.5737 8.0274 0.31603 13.843-0.66368 19.12-3.2552 5.4359-2.6548 9.9553-8.0275 12.326-14.633 2.3387-6.4156 3.4132-13.274 3.6976-23.261 1.0746-38.873-14.253-77.082-42.097-104.93-22.344-22.344-50.819-36.534-82.076-40.896-6.5104-0.91652-6.3524-0.94812-8.944 1.0429z"/>
 </g>
</svg>
